<?xml version="1.0" standalone="no"?>
<!DOCTYPE svg PUBLIC "-//W3C//DTD SVG 20010904//EN"
 "http://www.w3.org/TR/2001/REC-SVG-20010904/DTD/svg10.dtd">
<svg version="1.0" xmlns="http://www.w3.org/2000/svg"
 width="352.485783pt" height="352.485783pt" viewBox="0 0 352.485783 352.485783"
 preserveAspectRatio="xMidYMid meet">
<metadata>
Created by potrace 1.16, written by Peter Selinger 2001-2019
</metadata>
<g transform="translate(0.000000,352.485783) scale(0.017624,-0.017624)"
fill="#000000" stroke="none">
<rect x="0" y="0" width="10" height="10" fill="#000000"/>
<rect x="3515" y="3515" width="10" height="10" fill="#000000"/>
<path d="M5630 18870 c-32 -14 -127 -106 -146 -142 -30 -57 -11 -282 40 -463
72 -262 322 -1002 390 -1157 98 -224 252 -561 335 -732 46 -93 121 -253 168
-355 46 -102 96 -211 110 -241 53 -113 85 -186 98 -220 47 -129 352 -747 434
-880 128 -209 199 -338 265 -485 37 -82 76 -168 86 -190 10 -22 27 -62 38 -90
51 -128 97 -235 133 -306 39 -78 252 -570 310 -717 17 -42 58 -133 91 -201 71
-146 88 -221 70 -307 -15 -75 -34 -101 -90 -126 -89 -39 -198 -22 -259 41 -21
21 -78 66 -128 99 -49 34 -133 95 -185 136 -178 140 -581 410 -880 589 -102
61 -237 145 -300 187 -409 268 -595 380 -850 510 -47 24 -119 62 -160 85 -188
106 -801 408 -950 468 -299 122 -502 165 -795 169 -181 2 -214 -7 -283 -78
-71 -73 -77 -91 -51 -158 16 -43 33 -66 87 -112 37 -31 123 -115 192 -187 159
-165 465 -442 735 -662 60 -50 132 -111 160 -136 27 -25 86 -74 130 -109 44
-35 130 -105 190 -155 190 -158 515 -416 594 -472 42 -29 108 -76 147 -103 40
-27 119 -84 177 -127 115 -85 241 -171 442 -302 225 -146 436 -288 555 -373
63 -45 151 -107 195 -137 110 -76 229 -168 284 -217 25 -23 69 -57 97 -76 64
-42 148 -139 163 -188 21 -72 13 -114 -38 -193 -38 -59 -90 -81 -174 -73 -110
10 -1460 7 -1587 -4 -133 -12 -957 -26 -1395 -24 -296 1 -447 9 -800 41 -320
29 -1083 20 -1400 -18 -218 -26 -493 -79 -622 -121 -73 -23 -99 -37 -123 -64
-16 -19 -30 -39 -30 -45 0 -5 13 -44 30 -87 37 -95 103 -180 181 -233 74 -50
422 -227 514 -261 308 -115 937 -203 1915 -268 80 -5 235 -17 345 -25 110 -9
295 -20 410 -25 116 -5 379 -16 585 -25 206 -8 420 -20 475 -26 55 -5 280 -14
500 -19 413 -10 657 -29 729 -57 156 -61 232 -198 177 -319 -25 -55 -50 -77
-156 -135 -49 -28 -124 -71 -165 -96 -72 -44 -163 -97 -465 -270 -113 -65
-466 -292 -597 -384 -15 -11 -91 -62 -169 -115 -77 -52 -189 -128 -247 -168
-59 -40 -141 -93 -182 -118 -136 -82 -338 -198 -344 -198 -3 0 -78 -45 -167
-100 -89 -55 -163 -100 -165 -100 -4 0 -115 -73 -244 -160 -25 -16 -106 -70
-180 -119 -358 -236 -725 -580 -965 -903 -94 -126 -240 -364 -299 -488 -50
-104 -57 -179 -31 -309 21 -100 50 -164 95 -206 l31 -30 217 1 c213 1 255 5
474 45 129 24 374 95 478 139 92 38 372 176 625 308 105 54 316 163 470 242
154 78 294 150 310 160 17 10 86 48 155 86 69 37 170 91 224 121 153 83 510
299 731 443 299 195 370 241 480 310 94 59 259 167 350 230 66 46 277 181 330
212 101 59 181 91 252 101 70 11 75 10 133 -18 103 -49 136 -100 124 -194 -8
-70 -11 -76 -98 -188 -76 -98 -108 -143 -271 -378 -57 -82 -128 -183 -157
-223 -161 -224 -219 -302 -464 -632 -55 -74 -115 -155 -132 -180 -55 -77 -145
-190 -277 -346 -33 -39 -85 -101 -115 -138 -30 -37 -77 -93 -103 -124 -54 -64
-162 -199 -192 -240 -11 -15 -60 -81 -110 -148 -180 -241 -213 -289 -346 -509
-23 -38 -81 -126 -129 -195 -111 -159 -187 -278 -232 -360 -19 -36 -51 -94
-71 -130 -74 -134 -96 -205 -107 -353 -12 -163 -4 -212 49 -294 21 -32 72 -90
114 -130 103 -98 135 -102 323 -48 45 12 96 31 115 40 54 28 196 131 289 210
109 93 373 364 472 485 178 218 341 425 456 580 67 91 139 186 160 212 20 26
64 82 96 125 157 206 161 212 351 493 143 212 247 361 296 421 24 31 62 80 84
108 22 29 60 79 85 110 25 32 70 90 100 130 115 152 347 440 429 535 47 54
109 128 136 164 82 109 183 156 269 126 85 -30 123 -61 152 -121 41 -88 44
-105 29 -200 -13 -82 -24 -185 -46 -438 -9 -114 -16 -287 -24 -620 -3 -126
-12 -277 -20 -335 -7 -58 -19 -175 -25 -260 -6 -85 -18 -231 -27 -325 -53
-599 -43 -1439 23 -1945 9 -63 22 -162 29 -220 24 -184 57 -304 121 -437 37
-76 56 -103 118 -160 41 -39 105 -85 149 -108 75 -40 75 -40 97 -20 32 29 207
398 292 615 61 155 140 400 178 550 35 138 52 227 105 530 36 206 97 537 124
675 16 83 41 220 55 305 34 208 58 316 100 463 35 121 63 256 106 497 12 69
32 172 45 230 12 58 26 128 30 155 4 28 15 86 25 130 37 156 53 322 55 563 l2
232 30 43 c25 35 42 46 98 65 60 20 74 22 121 12 71 -15 135 -65 168 -132 14
-28 26 -60 26 -71 0 -10 13 -37 28 -60 16 -23 44 -69 62 -102 29 -53 217 -341
312 -480 145 -211 161 -237 421 -695 120 -211 136 -238 266 -436 110 -169 338
-527 396 -624 182 -303 217 -354 464 -675 148 -192 346 -390 463 -463 120 -74
177 -92 293 -92 108 0 145 12 190 59 30 32 30 33 28 144 -2 119 -27 415 -43
495 -27 139 -140 452 -260 717 -66 146 -312 635 -370 735 -21 36 -66 119 -100
185 -35 66 -111 208 -170 315 -59 107 -156 289 -215 405 -59 115 -122 232
-139 260 -18 27 -52 88 -76 135 -23 47 -53 101 -65 120 -11 19 -52 98 -89 175
-64 131 -68 144 -69 210 0 103 37 161 133 204 98 45 180 18 281 -93 37 -39
111 -106 164 -147 54 -40 127 -99 164 -129 36 -30 93 -75 126 -99 98 -72 280
-224 540 -451 93 -81 137 -118 320 -269 173 -143 542 -397 810 -559 203 -122
489 -253 793 -362 135 -48 152 -52 295 -63 236 -18 360 -15 431 13 77 29 177
114 193 163 17 52 2 125 -45 208 -75 136 -474 553 -730 762 -215 176 -264 218
-408 349 -133 121 -254 217 -453 358 -177 125 -227 161 -351 245 -181 124
-233 161 -350 250 -58 44 -122 91 -142 105 -65 44 -286 230 -386 324 -100 94
-210 184 -250 205 -71 37 -133 119 -147 193 -7 39 14 122 43 167 42 64 155 97
275 81 327 -43 488 -58 967 -90 85 -6 216 -15 290 -20 74 -6 306 -17 515 -26
209 -8 457 -21 550 -29 94 -8 231 -19 305 -24 74 -6 185 -15 245 -21 212 -19
481 -40 633 -50 83 -5 156 -11 161 -14 25 -16 575 -38 826 -33 351 6 391 16
637 155 89 50 142 104 157 159 15 51 13 163 -2 190 -45 80 -255 266 -364 321
-167 85 -696 218 -1123 282 -74 11 -175 29 -225 41 -143 32 -525 107 -710 140
-93 16 -208 38 -255 49 -47 10 -119 26 -160 34 -41 8 -138 29 -215 46 -77 17
-180 40 -230 51 -114 25 -475 87 -580 100 -44 5 -118 16 -165 24 -275 47 -590
92 -740 105 -74 6 -195 18 -268 26 -74 8 -157 14 -186 14 -66 0 -137 24 -175
59 -60 56 -63 222 -6 297 26 34 61 52 580 305 189 91 313 150 455 214 109 49
205 93 305 139 39 18 99 46 135 61 36 15 119 52 185 80 66 29 147 64 180 77
33 14 143 62 245 107 326 145 494 218 519 226 13 4 74 32 135 63 163 81 248
119 371 167 231 91 464 188 594 247 34 16 124 54 200 84 173 71 341 155 458
230 51 33 132 84 180 114 101 63 223 173 223 202 0 69 -130 213 -241 266 -116
55 -165 64 -392 69 -223 6 -315 -2 -524 -42 -149 -29 -553 -130 -758 -190 -82
-23 -163 -46 -180 -50 -199 -46 -347 -79 -425 -96 -111 -24 -315 -78 -450
-119 -52 -16 -160 -48 -240 -70 -212 -61 -297 -86 -475 -142 -88 -27 -232 -72
-320 -100 -88 -27 -225 -74 -305 -105 -80 -30 -208 -78 -285 -106 -77 -28
-157 -61 -178 -74 -60 -38 -154 -57 -205 -44 -86 24 -152 113 -152 207 0 65
23 138 57 183 16 20 36 51 46 69 10 18 109 153 221 300 111 147 215 287 231
312 156 246 404 598 550 781 203 255 344 441 390 514 49 78 256 386 398 592
120 173 159 225 279 374 247 306 696 972 810 1202 155 313 205 454 215 602 6
101 -14 249 -48 344 -25 72 -97 180 -172 258 -55 57 -64 63 -130 78 -114 26
-169 9 -300 -91 -260 -199 -553 -470 -1003 -930 -611 -624 -963 -1001 -1294
-1389 -110 -130 -179 -205 -326 -355 -73 -74 -172 -181 -221 -237 -48 -56
-142 -164 -208 -240 -66 -76 -214 -235 -330 -353 -247 -252 -308 -321 -398
-452 -63 -90 -72 -99 -138 -132 -61 -30 -82 -36 -138 -36 -95 0 -128 20 -168
99 -27 52 -33 76 -33 127 0 35 5 83 10 106 6 24 19 93 31 153 58 306 70 386
109 690 34 261 39 306 45 390 4 44 13 136 20 205 18 162 30 312 55 710 27 431
36 774 28 1060 -3 129 -9 354 -12 500 -19 823 -60 1214 -150 1436 -41 100
-114 190 -210 258 -93 66 -138 86 -196 86 -107 0 -249 -88 -302 -186 -29 -56
-69 -196 -92 -329 -8 -49 -22 -126 -30 -170 -35 -196 -58 -350 -96 -630 -22
-165 -47 -343 -55 -395 -8 -52 -24 -169 -35 -260 -12 -91 -41 -307 -66 -480
-24 -173 -48 -346 -53 -385 -6 -38 -15 -117 -21 -175 -6 -58 -15 -139 -20
-180 -5 -41 -14 -124 -20 -185 -6 -60 -20 -180 -30 -265 -10 -85 -21 -182 -25
-215 -3 -33 -10 -91 -15 -130 -6 -38 -23 -164 -40 -280 -16 -115 -34 -264 -40
-330 -5 -66 -17 -174 -25 -240 -9 -66 -22 -178 -31 -250 -21 -183 -30 -223
-68 -302 -50 -103 -113 -134 -240 -118 -71 8 -98 31 -179 148 -256 371 -320
458 -399 544 -114 123 -280 330 -361 448 -34 49 -76 109 -93 132 -31 41 -163
256 -276 453 -110 190 -343 559 -573 910 -67 102 -155 239 -195 305 -40 66
-124 199 -185 295 -61 96 -126 200 -145 230 -19 30 -64 93 -100 139 -163 209
-194 251 -238 321 -62 100 -203 284 -302 395 -44 50 -135 170 -202 268 -66 98
-146 206 -177 240 -100 110 -234 272 -321 387 -117 155 -364 378 -485 440 -67
33 -180 48 -225 30z m5246 -6050 c223 -37 438 -97 649 -182 172 -69 190 -77
345 -166 245 -140 544 -375 686 -538 330 -382 489 -655 629 -1079 134 -407
173 -813 120 -1250 -38 -315 -122 -597 -272 -915 -100 -211 -294 -494 -461
-674 -214 -229 -492 -445 -757 -588 -613 -329 -1283 -431 -1960 -297 -82 16
-168 36 -190 43 -22 8 -80 27 -130 42 -481 146 -1010 494 -1324 869 -180 216
-248 319 -393 595 -111 212 -233 600 -267 850 -25 180 -35 448 -23 603 36 452
118 765 292 1117 202 407 490 762 817 1006 65 48 134 100 153 114 57 43 259
156 402 224 136 65 265 114 386 146 37 9 103 27 147 38 213 56 471 82 751 77
176 -4 243 -9 400 -35z"/>
</g>
</svg>
