<?xml version="1.0" standalone="no"?>
<!DOCTYPE svg PUBLIC "-//W3C//DTD SVG 20010904//EN"
 "http://www.w3.org/TR/2001/REC-SVG-20010904/DTD/svg10.dtd">
<svg version="1.0" xmlns="http://www.w3.org/2000/svg"
 width="352.485783pt" height="352.485783pt" viewBox="0 0 352.485783 352.485783"
 preserveAspectRatio="xMidYMid meet">
<metadata>
Created by potrace 1.16, written by Peter Selinger 2001-2019
</metadata>
<g transform="translate(0.000000,352.485783) scale(0.017624,-0.017624)"
fill="#000000" stroke="none">
<rect x="0" y="0" width="10" height="10" fill="#000000"/>
<rect x="3515" y="3515" width="10" height="10" fill="#000000"/>
<path d="M5524 19345 c-193 -42 -398 -232 -492 -457 -25 -60 -27 -71 -26 -223
2 -271 68 -563 229 -1019 29 -83 84 -248 123 -366 71 -220 158 -433 301 -738
45 -95 81 -175 81 -177 0 -2 59 -126 131 -277 121 -252 203 -430 299 -648 229
-519 351 -762 542 -1083 109 -183 195 -353 291 -578 41 -96 86 -199 100 -229
48 -103 137 -314 133 -317 -1 -2 -29 14 -62 36 -184 120 -325 211 -369 236
-84 48 -305 185 -395 245 -150 100 -402 256 -524 324 -66 37 -132 76 -147 87
-15 11 -142 78 -281 148 -139 71 -345 177 -458 236 -536 278 -803 381 -1130
435 -212 35 -379 45 -550 32 -258 -19 -344 -54 -487 -199 -148 -150 -213 -267
-213 -382 0 -109 75 -332 148 -437 56 -81 530 -548 737 -726 402 -344 462
-395 505 -428 25 -19 108 -89 185 -155 166 -141 346 -292 384 -320 15 -11 94
-72 177 -136 82 -64 187 -142 233 -173 46 -32 134 -95 195 -140 239 -178 452
-324 671 -461 52 -33 128 -83 168 -111 40 -28 118 -82 175 -121 l102 -70 -232
1 c-128 1 -395 -4 -593 -10 -198 -7 -614 -18 -925 -23 -613 -12 -795 -7 -1210
31 -212 20 -302 23 -675 22 -675 -1 -1046 -37 -1445 -140 -242 -63 -344 -115
-451 -233 -131 -144 -180 -329 -134 -506 39 -149 163 -357 269 -450 82 -73
112 -93 248 -166 325 -176 353 -189 593 -280 106 -40 484 -112 830 -159 197
-26 416 -49 605 -64 113 -9 255 -21 315 -26 61 -5 180 -14 265 -20 85 -6 236
-17 335 -25 194 -15 451 -28 910 -45 279 -11 707 -35 847 -49 l67 -6 -107 -65
c-59 -36 -275 -177 -480 -315 -205 -137 -448 -299 -540 -358 -164 -106 -199
-127 -412 -250 -171 -97 -270 -157 -355 -212 -44 -29 -125 -80 -180 -115 -474
-302 -789 -555 -1052 -844 -205 -226 -315 -371 -445 -586 -196 -327 -231 -408
-258 -591 -17 -118 8 -301 60 -431 63 -161 103 -223 211 -329 101 -100 174
-146 271 -169 121 -29 539 -18 763 21 158 27 443 103 605 162 101 36 369 158
458 208 29 16 128 68 220 115 92 48 264 136 382 197 118 60 249 129 290 152
41 23 134 72 205 107 72 36 182 94 245 130 209 117 354 201 405 233 55 36 178
109 300 181 44 25 103 63 130 84 28 20 87 60 133 89 l83 52 -42 -58 c-24 -32
-55 -74 -69 -93 -15 -19 -60 -80 -101 -135 -89 -120 -270 -356 -311 -405 -16
-19 -66 -78 -111 -131 -134 -157 -302 -361 -333 -405 -16 -22 -90 -123 -164
-223 -74 -100 -170 -237 -213 -304 -113 -174 -329 -501 -384 -577 -79 -111
-244 -414 -281 -515 -49 -135 -75 -303 -74 -475 1 -141 8 -193 42 -284 66
-175 313 -443 485 -526 153 -74 280 -86 485 -46 308 59 526 201 920 596 171
171 225 232 462 516 46 56 205 262 354 458 148 196 287 380 309 409 58 75 91
122 366 524 165 240 188 272 273 380 79 99 108 136 202 258 l46 60 -5 -270
c-3 -159 -12 -323 -21 -400 -9 -71 -21 -197 -26 -280 -5 -82 -14 -202 -20
-265 -42 -475 -49 -788 -31 -1300 17 -457 61 -899 117 -1180 50 -249 166 -474
327 -638 160 -162 387 -298 550 -329 168 -32 267 -1 397 123 72 69 80 82 166
256 50 101 112 230 137 288 43 98 63 149 177 445 36 93 74 216 120 385 33 117
92 416 120 600 11 74 38 225 59 335 22 110 51 263 65 340 15 77 32 174 40 215
8 41 22 120 31 175 18 103 41 203 119 510 25 99 46 192 46 206 0 15 27 164 60
330 33 167 60 306 60 309 0 2 16 -19 35 -49 19 -29 48 -71 64 -94 66 -97 154
-243 246 -407 207 -370 235 -416 470 -775 89 -134 145 -225 353 -565 195 -321
375 -565 640 -873 214 -248 524 -454 741 -493 116 -21 276 -18 384 7 189 43
237 68 347 179 138 139 166 267 140 635 -29 405 -86 620 -286 1090 -25 61 -54
131 -65 156 -37 95 -367 736 -513 999 -30 52 -79 142 -109 200 -31 58 -69 125
-84 150 l-27 45 36 -30 c19 -17 80 -69 134 -116 304 -263 508 -419 814 -622
63 -42 126 -85 140 -95 52 -39 274 -174 363 -221 75 -40 235 -115 402 -191 59
-27 283 -112 365 -139 162 -53 255 -69 455 -81 280 -17 438 5 617 88 194 90
361 267 413 438 35 116 6 341 -64 490 -114 243 -577 729 -1076 1129 -82 66
-196 164 -253 217 -113 106 -234 206 -297 246 -22 13 -76 53 -120 87 -44 33
-141 103 -215 155 -372 258 -611 430 -675 485 l-30 26 70 -6 c310 -25 579 -42
890 -55 410 -17 768 -39 975 -59 107 -11 245 -23 305 -26 61 -3 155 -10 210
-15 248 -23 453 -40 605 -50 91 -6 230 -15 310 -21 84 -7 273 -9 450 -7 307 5
392 14 543 58 52 15 202 84 317 145 107 57 246 173 302 254 91 131 133 338
104 510 -33 191 -110 326 -281 494 -186 183 -385 305 -596 365 -287 82 -630
165 -799 192 -69 11 -170 29 -225 40 -55 11 -149 29 -210 40 -60 10 -175 33
-255 49 -80 17 -181 37 -225 45 -44 8 -134 26 -200 40 -66 14 -178 34 -250 46
-71 12 -155 28 -185 36 -109 28 -307 73 -410 94 -58 11 -139 27 -180 35 -141
28 -308 55 -337 55 -15 0 -77 9 -138 20 -106 19 -207 36 -385 63 l-85 13 75
36 c110 53 293 136 352 159 55 21 322 137 448 194 153 69 579 255 584 255 3 0
63 26 133 59 71 32 220 100 333 150 113 51 228 103 255 116 28 14 79 34 114
46 35 11 73 27 85 34 12 8 50 25 86 39 36 14 115 46 175 72 61 25 128 53 150
61 22 8 56 23 75 34 19 10 98 43 175 73 191 75 263 113 503 266 48 31 109 68
135 84 106 61 271 215 345 323 39 56 92 231 92 306 0 54 -28 170 -57 235 -57
130 -204 298 -336 385 -119 79 -297 149 -452 179 -107 20 -567 16 -710 -6
-214 -34 -559 -114 -845 -196 -135 -39 -374 -99 -740 -185 -107 -25 -224 -54
-260 -64 -232 -66 -544 -158 -650 -191 -69 -21 -181 -55 -250 -74 -69 -19
-174 -51 -234 -70 -60 -20 -110 -35 -111 -33 -4 4 250 384 306 458 146 193
176 234 203 273 17 22 66 85 110 140 144 176 229 290 317 422 303 455 404 604
490 719 54 72 130 173 168 225 39 52 93 123 120 156 27 34 68 88 90 120 43 61
127 179 231 324 164 228 368 565 471 780 111 231 130 279 181 453 32 110 33
115 32 302 -1 139 -6 209 -18 260 -55 234 -106 337 -264 533 -140 173 -248
257 -397 308 -71 24 -95 27 -220 28 -157 1 -226 -14 -345 -74 -105 -52 -282
-187 -545 -414 -96 -83 -513 -475 -517 -486 -2 -4 -161 -169 -354 -367 -489
-498 -850 -888 -1187 -1282 -87 -102 -311 -345 -462 -501 -61 -63 -167 -182
-235 -264 -134 -161 -221 -258 -225 -254 -2 2 1 39 6 83 9 79 16 144 63 610
13 132 27 308 30 392 4 84 8 158 11 165 4 13 11 116 21 303 3 55 7 127 9 160
9 132 13 750 5 910 -4 94 -11 319 -14 500 -16 798 -88 1301 -223 1569 -47 93
-119 190 -192 259 -241 227 -378 290 -631 290 -125 0 -142 -2 -225 -31 -300
-103 -511 -341 -570 -642 -7 -41 -21 -104 -29 -140 -31 -132 -112 -646 -156
-990 -17 -129 -41 -309 -55 -400 -27 -185 -38 -259 -65 -475 -11 -82 -24 -179
-30 -215 -34 -218 -42 -279 -104 -845 -46 -414 -63 -559 -87 -730 -28 -198
-48 -351 -64 -494 -8 -68 -15 -125 -17 -126 -2 -2 -48 51 -103 117 -55 65
-133 158 -173 206 -90 107 -229 292 -266 352 -15 25 -41 68 -59 96 -45 72
-233 386 -307 514 -24 41 -79 131 -123 200 -44 69 -103 161 -130 205 -27 44
-105 163 -172 265 -67 102 -152 235 -190 295 -38 61 -92 146 -120 190 -28 44
-87 136 -130 205 -123 197 -191 295 -298 434 -55 72 -118 157 -140 190 -76
116 -101 151 -168 242 -38 50 -94 120 -126 155 -91 100 -153 183 -246 325 -97
149 -176 250 -292 374 -44 47 -107 122 -140 165 -201 268 -426 487 -643 628
-149 97 -443 150 -618 112z m324 -561 c29 -14 75 -44 103 -67 29 -23 66 -52
83 -65 61 -44 199 -189 269 -282 83 -111 206 -257 292 -350 33 -36 115 -146
182 -245 67 -99 159 -220 203 -270 99 -111 240 -295 302 -395 44 -70 75 -112
238 -321 36 -46 81 -109 100 -139 19 -30 84 -134 145 -230 61 -96 145 -229
185 -295 40 -66 128 -203 195 -305 230 -351 463 -720 573 -910 113 -197 245
-412 276 -453 17 -23 59 -83 93 -132 81 -118 247 -325 361 -448 49 -54 145
-177 213 -275 67 -97 151 -217 185 -267 82 -118 159 -194 210 -205 145 -34
258 26 330 174 38 78 47 118 68 301 9 72 22 184 31 250 8 66 20 174 25 240 6
66 24 215 40 330 17 116 34 242 40 280 5 39 12 97 15 130 4 33 15 130 25 215
10 85 24 205 30 265 6 61 15 144 20 185 5 41 14 122 20 180 6 58 15 137 21
175 5 39 29 212 53 385 25 173 54 389 66 480 11 91 27 208 35 260 8 52 33 230
55 395 38 280 61 434 96 630 8 44 22 121 30 170 20 116 62 270 84 315 27 52
68 87 138 115 110 45 181 31 305 -57 110 -80 170 -197 213 -416 53 -267 75
-575 90 -1222 3 -146 9 -371 12 -500 8 -286 -1 -629 -28 -1060 -25 -398 -37
-548 -55 -710 -7 -69 -16 -161 -20 -205 -6 -84 -11 -129 -45 -390 -39 -304
-51 -384 -109 -690 -12 -60 -25 -129 -31 -153 -19 -81 -13 -161 19 -227 31
-65 99 -137 144 -154 56 -21 147 -13 213 18 83 39 133 87 212 200 74 108 214
273 288 341 27 24 110 108 184 185 123 127 187 200 463 518 49 56 148 163 221
237 148 151 216 226 326 355 180 212 559 629 790 870 749 782 1125 1143 1447
1389 131 100 186 117 301 91 80 -18 98 -34 178 -154 54 -81 78 -148 100 -276
39 -229 0 -380 -204 -792 -114 -230 -563 -896 -810 -1202 -120 -149 -159 -201
-279 -374 -142 -206 -349 -514 -398 -592 -46 -73 -187 -259 -390 -514 -146
-183 -394 -535 -550 -781 -16 -25 -120 -165 -231 -312 -112 -147 -211 -282
-221 -300 -10 -18 -30 -49 -46 -69 -56 -74 -73 -199 -37 -274 30 -63 137 -161
190 -175 53 -14 146 5 207 43 21 13 101 46 178 74 77 28 205 76 285 106 80 31
217 78 305 105 88 28 232 73 320 100 178 56 263 81 475 142 80 22 188 54 240
70 135 41 339 95 450 119 78 17 226 50 425 96 17 4 98 27 180 50 358 104 776
200 977 225 136 17 493 8 572 -14 80 -23 179 -71 222 -108 38 -33 84 -114 84
-147 0 -25 -62 -78 -168 -144 -45 -29 -124 -78 -175 -111 -117 -75 -285 -159
-458 -230 -76 -30 -166 -68 -200 -84 -130 -59 -363 -156 -594 -247 -123 -48
-208 -86 -371 -167 -61 -31 -122 -59 -135 -63 -25 -8 -193 -81 -519 -226 -102
-45 -212 -93 -245 -107 -33 -13 -114 -48 -180 -77 -66 -28 -149 -65 -185 -80
-36 -15 -96 -43 -135 -61 -100 -46 -196 -90 -305 -139 -143 -65 -267 -123
-455 -215 -93 -45 -253 -122 -354 -172 -246 -119 -308 -177 -326 -301 -3 -26
-1 -73 5 -105 10 -50 19 -64 69 -113 65 -63 124 -89 207 -89 29 0 112 -6 186
-14 73 -8 194 -20 268 -26 150 -13 465 -58 740 -105 47 -8 121 -19 165 -24
105 -13 466 -75 580 -100 50 -11 153 -34 230 -51 77 -17 174 -38 215 -46 41
-8 113 -24 160 -34 47 -11 162 -33 255 -49 185 -33 567 -108 710 -140 50 -12
151 -30 225 -41 243 -36 447 -79 698 -144 352 -92 410 -116 557 -227 87 -65
147 -127 175 -178 15 -30 9 -173 -10 -213 -22 -46 -245 -165 -375 -199 -115
-30 -517 -37 -894 -15 -150 9 -277 19 -282 22 -5 3 -78 9 -161 14 -152 10
-421 31 -633 50 -60 6 -171 15 -245 21 -74 5 -211 16 -305 24 -93 8 -341 21
-550 29 -209 9 -441 20 -515 26 -74 5 -205 14 -290 20 -479 32 -640 47 -967
90 -86 12 -170 -1 -223 -35 -97 -61 -171 -191 -155 -273 15 -81 89 -176 186
-238 76 -49 170 -125 271 -220 100 -94 321 -280 386 -324 20 -14 84 -61 142
-105 117 -89 169 -126 350 -250 123 -84 169 -116 351 -245 188 -133 308 -227
437 -345 142 -128 239 -211 398 -340 171 -139 306 -268 485 -465 184 -202 241
-285 258 -377 19 -96 -13 -142 -132 -191 -53 -22 -78 -26 -172 -26 -60 -1
-178 4 -262 11 -143 11 -160 15 -295 63 -183 66 -464 185 -593 251 -260 133
-767 470 -1010 670 -183 151 -227 188 -320 269 -275 240 -444 380 -557 463
-42 31 -80 61 -83 67 -4 6 -59 49 -123 97 -64 48 -157 128 -207 180 -128 131
-202 159 -305 112 -50 -22 -153 -118 -177 -164 -11 -19 -16 -55 -16 -100 1
-66 5 -79 69 -210 37 -77 78 -156 89 -175 12 -19 42 -73 65 -120 24 -47 58
-108 76 -135 17 -28 80 -145 139 -260 59 -116 156 -298 215 -405 59 -107 135
-249 170 -315 34 -66 79 -149 100 -185 58 -100 304 -589 370 -735 121 -267
242 -605 264 -735 20 -116 48 -506 40 -557 -8 -53 -32 -63 -161 -63 -114 0
-172 18 -291 92 -149 93 -289 246 -578 633 -82 109 -155 222 -289 445 -58 97
-286 455 -396 624 -130 198 -146 225 -266 436 -260 458 -276 484 -421 695 -95
139 -283 427 -312 480 -18 33 -46 79 -62 102 -15 23 -28 50 -28 60 -1 87 -150
241 -253 263 -46 9 -62 8 -119 -10 -52 -16 -74 -30 -110 -68 -85 -91 -81 -76
-83 -335 -2 -240 -18 -406 -55 -562 -10 -44 -21 -102 -25 -130 -4 -27 -18 -97
-30 -155 -13 -58 -33 -161 -45 -230 -43 -241 -71 -376 -106 -497 -42 -147 -66
-255 -100 -463 -14 -85 -39 -222 -55 -305 -27 -138 -88 -469 -124 -675 -52
-300 -70 -390 -101 -515 -53 -211 -136 -458 -231 -685 -30 -73 -201 -438 -209
-449 -7 -9 -152 79 -194 119 -94 88 -171 300 -205 560 -7 58 -20 157 -29 220
-66 506 -76 1346 -23 1945 9 94 21 240 27 325 6 85 18 202 25 260 8 58 17 209
20 335 8 333 15 506 24 620 22 253 33 356 46 438 15 95 12 112 -29 199 -48
102 -180 194 -273 190 -82 -3 -179 -74 -272 -198 -25 -34 -85 -106 -132 -160
-82 -95 -313 -382 -429 -535 -30 -40 -75 -98 -100 -130 -25 -31 -63 -81 -85
-110 -22 -28 -60 -77 -84 -108 -49 -60 -153 -209 -296 -421 -190 -281 -194
-287 -351 -493 -32 -43 -76 -99 -96 -125 -21 -26 -93 -121 -160 -212 -119
-160 -394 -508 -507 -640 -156 -183 -367 -381 -531 -497 -108 -76 -135 -90
-234 -118 -113 -33 -149 -38 -200 -31 -55 9 -124 66 -177 149 -53 82 -61 131
-49 294 11 148 33 219 107 353 20 36 52 94 71 130 45 82 121 201 232 360 48
69 106 157 129 195 133 220 166 268 346 509 50 67 99 133 110 148 30 41 138
176 192 240 26 31 73 87 103 124 30 37 82 99 115 138 132 156 222 269 277 346
17 25 77 106 132 180 245 330 303 408 464 632 29 40 100 141 157 223 163 235
195 280 271 378 87 113 90 118 99 190 5 48 3 65 -15 102 -27 55 -86 107 -167
148 -61 30 -64 31 -135 20 -72 -10 -152 -42 -253 -101 -53 -31 -264 -166 -330
-212 -91 -63 -256 -171 -350 -230 -110 -69 -181 -115 -480 -310 -221 -144
-578 -360 -731 -443 -54 -30 -155 -84 -224 -121 -69 -38 -138 -76 -155 -86
-16 -10 -156 -82 -310 -160 -154 -79 -365 -188 -470 -242 -253 -132 -533 -270
-625 -308 -155 -65 -390 -126 -630 -166 -107 -17 -394 -29 -481 -20 l-66 7
-21 47 c-32 72 -55 193 -51 275 6 100 58 207 244 500 227 356 595 718 1005
988 74 49 155 103 180 119 129 87 240 160 244 160 2 0 76 45 165 100 89 55
164 100 167 100 6 0 208 116 344 198 41 25 123 78 182 118 58 40 170 116 247
168 78 53 154 104 169 115 131 92 484 319 597 384 302 173 393 226 465 270 41
25 116 68 165 95 114 63 176 118 209 184 45 91 30 168 -54 261 -57 63 -114
105 -176 130 -72 28 -316 47 -729 57 -220 5 -445 14 -500 19 -55 6 -269 18
-475 26 -206 9 -469 20 -585 25 -115 5 -300 16 -410 25 -110 8 -265 20 -345
25 -962 64 -1590 151 -1910 264 -72 26 -460 224 -513 262 -62 45 -99 98 -132
189 -20 55 -25 78 -17 88 31 37 410 121 707 156 317 38 1080 47 1400 18 353
-32 504 -40 800 -41 438 -2 1262 12 1395 24 127 11 1477 14 1587 4 85 -8 128
11 195 85 80 89 104 168 75 248 -18 50 -143 191 -204 230 -30 19 -78 56 -107
81 -65 57 -184 148 -291 223 -44 30 -132 92 -195 137 -119 85 -330 227 -555
373 -201 131 -327 217 -442 302 -58 43 -137 100 -177 127 -39 27 -105 74 -147
103 -79 56 -404 314 -594 472 -60 50 -146 120 -190 155 -44 35 -103 84 -130
109 -28 25 -100 86 -160 136 -279 228 -491 420 -743 673 -248 248 -262 275
-189 354 38 40 94 52 252 50 293 -4 496 -47 795 -169 149 -60 762 -362 950
-468 41 -23 113 -61 160 -85 255 -130 441 -242 850 -510 63 -42 198 -126 300
-187 299 -179 701 -448 880 -589 52 -41 129 -97 170 -126 41 -28 99 -73 128
-100 86 -77 183 -92 284 -44 69 32 113 83 133 150 31 102 17 173 -65 340 -32
67 -72 156 -89 198 -58 147 -271 639 -310 717 -36 71 -82 178 -133 306 -11 28
-28 68 -38 90 -10 22 -49 108 -86 190 -66 147 -137 276 -265 485 -82 133 -387
751 -434 880 -13 34 -45 107 -98 220 -14 30 -64 139 -110 241 -47 102 -122
262 -168 355 -83 171 -237 508 -335 732 -68 155 -318 895 -390 1157 -51 181
-70 406 -40 463 18 34 53 68 86 81 41 18 158 4 218 -25z"/>
</g>
</svg>
