<?xml version="1.0" standalone="no"?>
<!DOCTYPE svg PUBLIC "-//W3C//DTD SVG 20010904//EN"
 "http://www.w3.org/TR/2001/REC-SVG-20010904/DTD/svg10.dtd">
<svg version="1.0" xmlns="http://www.w3.org/2000/svg"
 width="352.447162pt" height="352.447162pt" viewBox="0 0 352.447162 352.447162"
 preserveAspectRatio="xMidYMid meet">
<metadata>
Created by potrace 1.16, written by Peter Selinger 2001-2019
</metadata>
<g transform="translate(0.000000,352.447162) scale(0.017622,-0.017622)"
fill="#000000" stroke="none">
<rect x="0" y="0" width="10" height="10" fill="#000000"/>
<rect x="3514" y="3514" width="10" height="10" fill="#000000"/>
<path d="M5464 19175 c-175 -38 -367 -203 -468 -404 -45 -87 -59 -177 -51
-321 13 -267 72 -516 229 -970 35 -102 93 -275 129 -385 65 -198 162 -439 272
-670 31 -66 67 -145 80 -175 13 -30 83 -179 155 -330 120 -249 177 -374 305
-660 251 -562 353 -767 550 -1095 110 -184 171 -307 295 -595 32 -74 95 -218
139 -319 44 -102 79 -186 78 -188 -2 -2 -30 14 -63 36 -188 123 -326 211 -379
241 -81 46 -278 169 -400 250 -134 89 -424 269 -505 312 -36 20 -110 62 -165
95 -55 33 -199 109 -320 171 -121 61 -308 156 -415 212 -526 273 -795 376
-1120 430 -212 35 -379 45 -550 32 -259 -20 -370 -67 -510 -220 -131 -143
-190 -254 -190 -359 0 -109 72 -322 146 -433 54 -81 491 -516 704 -701 294
-255 504 -434 556 -474 29 -22 160 -130 291 -240 258 -217 538 -438 673 -530
47 -32 135 -95 195 -140 237 -176 454 -325 697 -478 38 -23 101 -65 140 -93
40 -28 120 -82 176 -122 l104 -71 -259 3 c-142 2 -339 -1 -438 -6 -299 -14
-1497 -37 -1695 -32 -174 4 -278 11 -765 50 -368 30 -1108 6 -1490 -47 -251
-35 -520 -98 -651 -151 -178 -73 -325 -234 -369 -405 -24 -91 -20 -211 11
-301 52 -156 153 -323 249 -410 81 -74 121 -100 322 -209 229 -123 289 -152
393 -192 196 -76 167 -67 390 -116 267 -58 796 -129 1185 -160 116 -9 260 -20
320 -25 61 -5 178 -14 260 -20 83 -6 200 -15 260 -20 142 -13 590 -36 965 -50
288 -11 726 -35 863 -48 l69 -7 -109 -65 c-98 -58 -621 -405 -818 -541 -179
-125 -415 -269 -695 -427 -63 -36 -155 -91 -205 -123 -49 -31 -142 -90 -205
-130 -207 -131 -523 -350 -640 -445 -283 -228 -567 -526 -766 -804 -70 -97
-226 -355 -290 -478 -89 -173 -122 -329 -104 -495 15 -137 23 -171 69 -283 59
-143 96 -199 202 -305 103 -103 173 -146 280 -171 109 -26 539 -12 759 24 123
20 429 100 565 148 140 49 387 164 625 290 63 34 243 127 400 207 157 80 319
165 360 188 41 23 136 73 210 110 74 37 160 82 191 101 31 19 59 34 62 34 3 0
57 30 119 66 62 37 147 86 188 109 41 23 136 79 210 125 74 46 171 105 215
132 44 27 117 75 162 106 45 31 96 65 113 76 30 17 30 15 -19 -50 -264 -358
-413 -555 -461 -609 -20 -22 -42 -50 -50 -61 -8 -12 -46 -58 -85 -101 -99
-112 -288 -341 -316 -383 -13 -20 -39 -53 -57 -75 -67 -82 -250 -340 -335
-473 -141 -218 -302 -460 -363 -547 -90 -126 -252 -421 -292 -530 -16 -44 -50
-180 -63 -255 -14 -79 -14 -339 0 -402 31 -139 119 -284 259 -425 113 -116
209 -186 303 -223 148 -57 236 -63 427 -29 298 53 530 198 894 561 290 289
449 478 860 1020 378 500 390 517 497 673 37 55 114 168 170 250 148 217 188
271 364 495 l157 201 0 -233 c0 -128 -4 -260 -9 -293 -12 -75 -36 -335 -57
-610 -8 -115 -20 -259 -25 -320 -46 -517 -12 -1442 76 -2047 40 -278 94 -445
200 -625 143 -241 467 -484 706 -529 176 -34 273 -3 404 130 83 84 80 78 217
361 117 241 289 677 338 861 12 43 28 103 37 133 35 127 94 424 123 616 12 77
39 228 60 335 37 186 72 376 105 560 9 47 23 126 32 175 17 96 44 212 117 500
25 99 46 192 46 207 0 15 27 163 60 330 33 166 60 305 60 307 0 3 49 -69 109
-161 101 -152 174 -277 384 -648 42 -74 130 -218 196 -320 135 -208 399 -626
504 -800 112 -186 254 -388 422 -601 281 -356 492 -544 743 -660 129 -59 173
-70 325 -76 119 -5 153 -3 250 17 160 32 242 73 337 169 149 148 175 260 150
631 -25 366 -82 614 -215 935 -20 50 -52 126 -70 170 -63 153 -104 241 -203
440 -107 214 -323 624 -377 715 -17 30 -63 114 -100 185 -37 72 -75 141 -85
155 -36 53 -32 53 29 0 64 -55 87 -75 265 -225 198 -168 378 -301 636 -474 74
-50 162 -109 195 -131 115 -79 171 -113 285 -175 142 -77 344 -174 470 -225
414 -167 513 -193 795 -210 281 -17 439 6 621 90 101 47 137 72 237 169 164
159 214 316 173 546 -36 200 -102 315 -326 570 -220 252 -509 525 -815 770
-82 66 -196 164 -253 217 -112 105 -233 206 -296 246 -22 13 -92 64 -156 112
-63 48 -171 125 -240 172 -289 197 -645 457 -636 465 2 3 60 0 128 -6 253 -22
402 -32 728 -46 184 -8 376 -17 425 -20 50 -2 133 -7 185 -10 200 -11 281 -17
465 -35 105 -10 240 -21 300 -25 61 -3 155 -10 210 -15 230 -22 450 -40 605
-50 91 -6 230 -15 310 -21 182 -14 733 -7 810 10 30 7 87 19 125 28 78 16 232
81 374 157 114 61 250 177 306 262 73 108 124 316 110 448 -15 141 -73 287
-168 419 -50 70 -239 246 -335 311 -116 79 -287 159 -417 195 -271 75 -598
153 -738 176 -83 14 -208 36 -277 50 -69 13 -147 27 -175 31 -27 3 -95 17
-150 29 -55 13 -163 35 -240 50 -77 14 -183 35 -235 46 -157 32 -189 38 -335
64 -77 14 -187 36 -245 50 -155 37 -324 74 -415 91 -44 8 -87 16 -95 19 -33
10 -311 55 -337 55 -15 0 -77 9 -138 20 -109 20 -222 38 -385 63 l-85 13 97
47 c53 26 100 47 105 47 4 0 29 11 55 25 26 14 96 45 156 70 60 24 144 61 188
81 43 20 115 51 159 69 44 18 105 44 135 58 75 35 454 201 568 249 50 21 127
54 170 74 42 20 172 79 287 131 116 52 238 107 271 123 34 16 74 32 90 36 16
4 46 15 67 26 20 10 74 34 120 52 45 19 154 64 242 101 88 37 228 95 311 130
152 62 306 136 334 160 8 7 47 30 85 52 39 22 104 61 145 88 41 26 93 59 115
73 116 73 281 235 339 334 28 49 76 224 76 281 0 54 -28 170 -57 235 -36 81
-121 197 -200 273 -119 114 -253 193 -423 247 -162 52 -210 57 -510 55 -339
-1 -389 -8 -869 -124 -113 -27 -266 -67 -340 -89 -167 -48 -397 -105 -636
-159 -279 -63 -470 -116 -1015 -281 -107 -32 -215 -64 -240 -71 -25 -6 -114
-33 -199 -60 -85 -27 -156 -47 -157 -46 -3 5 258 393 340 502 210 283 198 267
424 549 40 50 114 154 166 231 428 643 455 682 621 895 41 52 86 113 101 135
14 22 43 60 64 85 20 25 87 115 148 200 61 85 139 193 172 240 111 155 248
373 397 632 46 81 162 329 198 426 13 34 39 113 57 175 33 111 33 114 32 307
-2 184 -4 202 -33 315 -47 180 -118 316 -244 468 -204 246 -350 331 -590 344
-214 11 -355 -42 -589 -219 -239 -181 -526 -436 -798 -708 -420 -421 -850
-871 -1241 -1301 -185 -203 -206 -226 -349 -395 -87 -102 -283 -314 -455 -494
-112 -117 -212 -231 -312 -356 -23 -29 -70 -81 -103 -116 l-60 -63 4 35 c3 19
10 80 16 135 5 55 17 161 25 235 8 74 19 185 25 245 6 61 12 130 15 155 9 92
15 168 20 290 3 69 10 168 15 220 5 52 12 151 15 220 4 69 8 150 10 180 13
188 16 615 6 870 -6 162 -13 421 -16 575 -3 154 -8 321 -11 370 -8 140 -33
422 -44 503 -6 39 -15 107 -21 150 -12 93 -52 263 -81 352 -56 172 -143 316
-257 423 -216 203 -354 275 -566 292 -163 13 -301 -20 -470 -115 -190 -106
-345 -331 -390 -564 -8 -44 -22 -104 -30 -135 -14 -55 -42 -214 -70 -401 -61
-396 -76 -498 -100 -700 -9 -74 -27 -207 -40 -295 -25 -162 -59 -415 -70 -515
-3 -30 -10 -77 -15 -105 -4 -27 -13 -84 -19 -125 -6 -41 -15 -106 -21 -145
-11 -74 -17 -120 -75 -645 -41 -371 -93 -808 -100 -830 -5 -17 -28 -198 -50
-389 -8 -68 -15 -125 -17 -127 -2 -2 -17 14 -33 34 -16 20 -89 107 -161 192
-261 305 -372 470 -714 1060 -24 41 -78 129 -120 195 -71 111 -128 201 -222
351 -20 33 -72 111 -115 174 -43 64 -96 145 -117 180 -39 64 -87 141 -171 270
-23 36 -77 121 -120 190 -110 178 -186 288 -289 424 -98 127 -139 184 -206
286 -66 99 -173 240 -237 311 -90 99 -152 182 -256 339 -99 149 -181 253 -296
375 -36 39 -93 106 -126 150 -178 237 -344 407 -550 561 -108 81 -122 89 -212
125 -147 59 -367 83 -499 54z m331 -565 c115 -58 324 -247 433 -390 93 -123
147 -189 283 -342 48 -53 142 -179 210 -279 68 -101 152 -213 186 -251 101
-110 213 -255 316 -409 53 -80 113 -165 135 -189 115 -132 259 -347 500 -745
47 -77 137 -219 200 -315 335 -510 403 -619 741 -1187 72 -122 136 -225 141
-228 6 -4 34 -41 62 -83 92 -137 271 -361 405 -507 41 -44 125 -154 188 -245
63 -91 146 -210 184 -265 91 -132 155 -197 207 -213 172 -51 324 60 377 274 8
32 22 124 31 204 9 80 21 174 26 210 10 72 26 215 35 330 4 41 13 117 21 168
33 211 79 581 114 917 11 105 22 204 25 220 3 17 10 76 15 130 21 207 38 338
64 520 50 344 67 466 86 615 12 91 30 224 40 295 11 72 31 216 45 320 40 301
70 500 102 670 8 44 21 121 29 170 16 93 45 207 72 284 22 66 72 115 147 145
112 45 172 35 300 -50 217 -143 285 -499 311 -1634 3 -140 9 -365 12 -500 12
-428 -25 -1227 -83 -1785 -8 -77 -21 -210 -30 -295 -42 -409 -102 -800 -177
-1147 -16 -75 -6 -183 22 -230 30 -49 97 -121 132 -139 16 -8 56 -14 96 -14
59 0 78 5 131 33 94 50 123 78 203 190 100 140 173 223 372 423 157 157 255
264 398 431 134 156 275 311 427 468 90 93 190 200 220 236 149 178 214 252
416 474 559 616 1422 1492 1631 1655 17 14 69 57 115 96 256 215 308 240 444
209 75 -16 77 -17 131 -83 111 -134 159 -286 159 -497 -1 -92 -5 -136 -22
-190 -28 -96 -91 -248 -157 -383 -31 -62 -56 -116 -56 -118 0 -8 -222 -363
-280 -449 -123 -182 -163 -239 -249 -355 -51 -69 -111 -152 -133 -185 -23 -33
-82 -111 -132 -172 -120 -148 -158 -199 -224 -297 -31 -44 -110 -160 -177
-256 -66 -96 -134 -196 -150 -221 -17 -25 -52 -81 -80 -123 -58 -90 -222 -311
-348 -471 -207 -260 -395 -521 -553 -765 -59 -91 -116 -177 -128 -192 -12 -15
-41 -55 -66 -88 -25 -34 -59 -78 -76 -98 -127 -152 -331 -448 -352 -511 -19
-54 -15 -139 9 -187 29 -61 138 -160 191 -175 51 -13 145 6 205 44 21 13 81
38 133 57 52 18 179 66 281 106 103 41 192 74 198 74 6 0 79 22 163 49 265 86
599 188 703 216 55 15 127 35 160 45 279 86 442 130 620 170 340 75 451 102
595 144 373 108 790 204 976 226 128 14 434 12 526 -4 139 -25 263 -92 316
-170 38 -57 49 -93 35 -115 -15 -25 -134 -112 -225 -165 -46 -27 -108 -66
-138 -86 -80 -55 -272 -149 -455 -223 -88 -36 -200 -84 -249 -107 -49 -22
-145 -63 -215 -91 -69 -27 -151 -61 -181 -74 -30 -13 -108 -45 -172 -70 -64
-25 -181 -77 -260 -117 -79 -39 -195 -92 -258 -118 -123 -51 -459 -197 -628
-274 -56 -25 -105 -46 -109 -46 -6 0 -72 -29 -453 -201 -113 -50 -248 -111
-300 -134 -125 -56 -280 -130 -465 -220 -82 -40 -242 -118 -355 -173 -190 -92
-210 -104 -262 -160 -57 -62 -78 -114 -78 -191 0 -56 31 -135 67 -168 73 -69
116 -86 237 -94 252 -17 697 -64 831 -89 28 -5 100 -16 160 -25 61 -9 146 -23
190 -31 44 -7 116 -18 160 -23 108 -13 468 -75 585 -101 52 -12 147 -32 210
-46 63 -14 132 -29 154 -35 21 -6 71 -16 110 -24 39 -7 127 -24 196 -38 69
-14 157 -30 195 -37 39 -6 158 -30 265 -52 107 -21 233 -46 280 -54 47 -9 121
-24 165 -34 44 -11 139 -28 210 -39 159 -25 440 -76 497 -91 24 -6 75 -20 113
-30 39 -11 117 -31 175 -46 134 -33 271 -79 335 -111 112 -57 266 -188 312
-267 15 -26 17 -138 2 -189 -13 -49 -28 -61 -161 -134 -193 -105 -290 -123
-653 -123 -236 0 -686 23 -785 39 -30 5 -109 12 -175 16 -66 3 -223 15 -350
26 -126 11 -315 27 -420 34 -206 16 -393 32 -465 40 -25 3 -216 12 -425 20
-397 16 -442 18 -670 35 -77 6 -205 15 -285 20 -388 24 -580 43 -837 81 -89
13 -171 -1 -225 -38 -97 -66 -166 -186 -154 -266 13 -82 82 -171 187 -242 80
-54 183 -138 274 -225 50 -47 113 -103 140 -125 28 -22 80 -65 116 -95 134
-111 418 -318 717 -521 52 -35 130 -91 175 -124 45 -34 111 -80 147 -104 125
-84 294 -223 470 -386 42 -38 161 -140 266 -226 104 -86 230 -194 279 -240 82
-79 304 -317 387 -418 76 -92 125 -214 112 -280 -13 -63 -107 -123 -226 -142
-63 -11 -359 2 -473 21 -110 18 -553 194 -768 304 -125 65 -272 155 -513 314
-315 209 -411 283 -839 647 -71 61 -152 130 -180 156 -98 89 -201 171 -547
439 -68 52 -168 140 -223 196 -76 78 -110 104 -140 113 -95 26 -168 2 -258
-87 -78 -76 -90 -101 -89 -188 0 -67 4 -79 69 -210 71 -145 136 -267 209 -394
87 -152 106 -188 188 -350 87 -172 166 -319 230 -430 21 -36 76 -139 124 -230
47 -91 95 -181 107 -200 62 -99 361 -708 425 -865 29 -71 68 -166 86 -210 36
-88 100 -294 114 -367 22 -115 53 -516 44 -575 -5 -35 -11 -43 -37 -52 -47
-17 -209 -14 -264 5 -124 41 -313 184 -426 320 -233 282 -363 463 -546 759
-34 55 -112 179 -173 275 -61 96 -144 229 -186 295 -41 66 -93 147 -117 180
-44 62 -239 391 -315 530 -113 208 -201 350 -401 645 -171 252 -327 509 -341
559 -18 65 -46 107 -112 169 -51 48 -79 65 -122 78 -57 16 -58 16 -168 -13
-26 -7 -111 -88 -138 -131 -21 -34 -22 -48 -24 -281 -2 -188 -7 -276 -22 -371
-21 -133 -73 -405 -97 -505 -8 -33 -28 -141 -45 -240 -39 -223 -60 -317 -103
-470 -44 -151 -58 -222 -108 -520 -22 -132 -48 -277 -59 -322 -11 -45 -24
-108 -29 -140 -6 -32 -24 -134 -40 -228 -16 -93 -37 -213 -46 -265 -82 -483
-174 -799 -348 -1200 -39 -91 -175 -379 -182 -388 -7 -8 -127 61 -177 102 -43
35 -65 64 -97 126 -61 122 -109 298 -131 480 -5 47 -16 135 -24 195 -29 215
-46 475 -53 840 -4 204 -8 388 -8 410 2 127 17 461 25 525 9 78 23 242 40 495
6 83 18 197 26 255 8 58 17 211 20 340 7 339 13 512 23 620 5 52 14 151 21
220 6 69 17 164 25 211 16 94 13 111 -30 201 -33 69 -97 131 -172 165 -102 47
-170 30 -277 -68 -32 -29 -74 -76 -94 -105 -20 -28 -82 -103 -137 -166 -55
-62 -117 -133 -136 -158 -19 -25 -78 -99 -130 -165 -52 -66 -103 -132 -114
-146 -125 -167 -308 -403 -336 -434 -26 -30 -101 -137 -270 -390 -165 -246
-354 -510 -408 -570 -20 -22 -99 -125 -176 -229 -437 -589 -746 -934 -1019
-1138 -146 -109 -169 -121 -299 -159 -168 -48 -219 -38 -308 58 -96 107 -113
168 -99 359 12 156 29 209 127 393 74 140 74 139 334 526 37 55 105 161 151
235 46 75 106 166 133 204 124 170 263 356 297 396 20 25 67 84 105 131 37 47
103 128 147 180 250 300 293 353 420 524 66 88 136 183 156 210 20 28 70 95
111 150 227 307 398 546 591 825 66 96 137 194 158 216 51 55 66 88 74 157 6
48 4 65 -14 102 -27 55 -86 107 -167 148 -62 31 -63 31 -140 20 -117 -17 -244
-89 -699 -394 -71 -47 -181 -119 -244 -158 -143 -89 -213 -134 -625 -403 -164
-107 -405 -250 -600 -356 -66 -36 -169 -92 -230 -125 -388 -211 -1390 -722
-1520 -776 -281 -115 -679 -191 -995 -191 -170 0 -185 4 -208 54 -32 68 -54
191 -50 275 4 86 34 160 136 331 208 351 408 592 693 840 161 140 308 253 437
335 51 33 150 98 220 144 70 46 147 96 172 111 25 15 101 62 170 105 69 42
154 93 190 113 155 84 432 250 500 299 167 120 903 606 1017 671 281 161 410
236 503 292 52 31 124 73 160 93 210 116 263 258 153 410 -36 48 -136 127
-189 147 -84 33 -445 60 -809 60 -94 0 -251 6 -350 14 -99 8 -256 17 -350 21
-93 3 -197 7 -230 10 -33 2 -186 9 -340 15 -270 10 -589 29 -840 50 -66 6
-187 15 -270 20 -467 32 -686 53 -1030 101 -350 48 -437 64 -600 109 -152 43
-174 52 -401 166 -228 115 -294 158 -335 219 -41 62 -83 176 -72 194 13 20
154 65 264 85 46 8 116 22 154 31 300 69 1185 104 1640 65 487 -42 768 -53
1115 -44 168 4 361 7 430 5 107 -2 647 14 835 25 120 7 1333 6 1426 -1 112 -8
145 3 216 77 88 91 114 187 73 268 -30 60 -144 184 -197 218 -27 16 -70 49
-98 74 -54 48 -227 177 -399 298 -58 41 -134 95 -168 119 -73 52 -312 211
-499 333 -238 154 -548 372 -818 575 -176 133 -217 165 -450 356 -68 56 -140
116 -161 132 -66 53 -223 183 -286 237 -33 29 -94 80 -133 113 -297 245 -455
388 -709 642 -247 247 -259 267 -217 338 37 64 74 75 253 75 306 0 510 -43
822 -170 146 -60 787 -377 932 -461 36 -22 69 -39 72 -39 10 0 370 -197 481
-263 61 -36 200 -125 310 -196 254 -166 269 -176 450 -284 396 -237 888 -578
1215 -843 28 -23 56 -35 103 -43 58 -10 70 -9 122 11 136 52 200 183 165 336
-6 23 -37 97 -69 165 -33 67 -73 156 -89 197 -44 112 -233 553 -241 565 -4 6
-14 26 -21 45 -7 19 -32 73 -55 120 -23 47 -47 101 -55 120 -22 60 -94 228
-190 442 -62 140 -112 234 -193 368 -124 202 -249 437 -351 660 -21 47 -65
140 -97 208 -33 68 -59 126 -59 129 0 6 -51 122 -105 238 -13 28 -49 106 -81
175 -61 134 -121 262 -214 455 -32 66 -68 143 -81 170 -12 28 -60 133 -107
235 -46 102 -104 230 -129 285 -36 81 -234 659 -343 1000 -68 215 -100 380
-100 520 0 76 2 85 31 124 42 58 77 73 164 66 50 -4 87 -14 130 -35z"/>
</g>
</svg>
